<mxfile host="app.diagrams.net" modified="2021-10-19T07:26:56.215Z" agent="5.0 (Windows NT 10.0; Win64; x64) AppleWebKit/537.36 (KHTML, like Gecko) Chrome/94.0.4606.81 Safari/537.36" etag="5zjGPsW9ilX7P2qKAqKj" version="15.4.3" type="github">
  <diagram id="R2lEEEUBdFMjLlhIrx00" name="Page-1">
    <mxGraphModel dx="1385" dy="693" grid="1" gridSize="10" guides="1" tooltips="1" connect="1" arrows="1" fold="1" page="1" pageScale="1" pageWidth="850" pageHeight="1100" math="0" shadow="0" extFonts="Permanent Marker^https://fonts.googleapis.com/css?family=Permanent+Marker">
      <root>
        <mxCell id="0" />
        <mxCell id="1" parent="0" />
        <mxCell id="zmeIX9qdZ1ImB4HtOPrC-19" style="edgeStyle=orthogonalEdgeStyle;rounded=0;orthogonalLoop=1;jettySize=auto;html=1;exitX=1;exitY=0.5;exitDx=0;exitDy=0;" edge="1" parent="1" source="zmeIX9qdZ1ImB4HtOPrC-3" target="zmeIX9qdZ1ImB4HtOPrC-14">
          <mxGeometry relative="1" as="geometry" />
        </mxCell>
        <mxCell id="zmeIX9qdZ1ImB4HtOPrC-1" value="rentalMobil" style="swimlane;fontStyle=0;childLayout=stackLayout;horizontal=1;startSize=26;horizontalStack=0;resizeParent=1;resizeParentMax=0;resizeLast=0;collapsible=1;marginBottom=0;align=center;fontSize=14;" vertex="1" parent="1">
          <mxGeometry x="150" y="190" width="160" height="170" as="geometry" />
        </mxCell>
        <mxCell id="zmeIX9qdZ1ImB4HtOPrC-2" value="platNomor" style="text;strokeColor=none;fillColor=none;spacingLeft=4;spacingRight=4;overflow=hidden;rotatable=0;points=[[0,0.5],[1,0.5]];portConstraint=eastwest;fontSize=12;" vertex="1" parent="zmeIX9qdZ1ImB4HtOPrC-1">
          <mxGeometry y="26" width="160" height="30" as="geometry" />
        </mxCell>
        <mxCell id="zmeIX9qdZ1ImB4HtOPrC-3" value="tahunPembuatan    " style="text;strokeColor=none;fillColor=none;spacingLeft=4;spacingRight=4;overflow=hidden;rotatable=0;points=[[0,0.5],[1,0.5]];portConstraint=eastwest;fontSize=12;" vertex="1" parent="zmeIX9qdZ1ImB4HtOPrC-1">
          <mxGeometry y="56" width="160" height="30" as="geometry" />
        </mxCell>
        <mxCell id="zmeIX9qdZ1ImB4HtOPrC-4" value="model&#xa;&#xa;tahunKepemilikan&#xa;&#xa;warna" style="text;strokeColor=none;fillColor=none;spacingLeft=4;spacingRight=4;overflow=hidden;rotatable=0;points=[[0,0.5],[1,0.5]];portConstraint=eastwest;fontSize=12;" vertex="1" parent="zmeIX9qdZ1ImB4HtOPrC-1">
          <mxGeometry y="86" width="160" height="84" as="geometry" />
        </mxCell>
        <mxCell id="zmeIX9qdZ1ImB4HtOPrC-12" value="pelanggan" style="swimlane;fontStyle=0;childLayout=stackLayout;horizontal=1;startSize=26;horizontalStack=0;resizeParent=1;resizeParentMax=0;resizeLast=0;collapsible=1;marginBottom=0;align=center;fontSize=14;" vertex="1" parent="1">
          <mxGeometry x="520" y="190" width="160" height="140" as="geometry" />
        </mxCell>
        <mxCell id="zmeIX9qdZ1ImB4HtOPrC-13" value="idPelanggan" style="text;strokeColor=none;fillColor=none;spacingLeft=4;spacingRight=4;overflow=hidden;rotatable=0;points=[[0,0.5],[1,0.5]];portConstraint=eastwest;fontSize=12;fontStyle=4" vertex="1" parent="zmeIX9qdZ1ImB4HtOPrC-12">
          <mxGeometry y="26" width="160" height="30" as="geometry" />
        </mxCell>
        <mxCell id="zmeIX9qdZ1ImB4HtOPrC-14" value="nama" style="text;strokeColor=none;fillColor=none;spacingLeft=4;spacingRight=4;overflow=hidden;rotatable=0;points=[[0,0.5],[1,0.5]];portConstraint=eastwest;fontSize=12;" vertex="1" parent="zmeIX9qdZ1ImB4HtOPrC-12">
          <mxGeometry y="56" width="160" height="30" as="geometry" />
        </mxCell>
        <mxCell id="zmeIX9qdZ1ImB4HtOPrC-15" value="alamat&#xa;&#xa;email" style="text;strokeColor=none;fillColor=none;spacingLeft=4;spacingRight=4;overflow=hidden;rotatable=0;points=[[0,0.5],[1,0.5]];portConstraint=eastwest;fontSize=12;" vertex="1" parent="zmeIX9qdZ1ImB4HtOPrC-12">
          <mxGeometry y="86" width="160" height="54" as="geometry" />
        </mxCell>
        <mxCell id="zmeIX9qdZ1ImB4HtOPrC-20" value="disewa" style="shape=rhombus;perimeter=rhombusPerimeter;whiteSpace=wrap;html=1;align=center;" vertex="1" parent="1">
          <mxGeometry x="350" y="230" width="120" height="60" as="geometry" />
        </mxCell>
        <mxCell id="zmeIX9qdZ1ImB4HtOPrC-23" value="ISA" style="triangle;whiteSpace=wrap;html=1;rotation=90;" vertex="1" parent="1">
          <mxGeometry x="210" y="410" width="60" height="80" as="geometry" />
        </mxCell>
        <mxCell id="zmeIX9qdZ1ImB4HtOPrC-25" value="" style="line;strokeWidth=2;direction=south;html=1;" vertex="1" parent="1">
          <mxGeometry x="235" y="360" width="10" height="60" as="geometry" />
        </mxCell>
        <mxCell id="zmeIX9qdZ1ImB4HtOPrC-26" value="Compact" style="swimlane;fontStyle=0;childLayout=stackLayout;horizontal=1;startSize=26;horizontalStack=0;resizeParent=1;resizeParentMax=0;resizeLast=0;collapsible=1;marginBottom=0;align=center;fontSize=14;" vertex="1" parent="1">
          <mxGeometry x="50" y="520" width="160" height="56" as="geometry" />
        </mxCell>
        <mxCell id="zmeIX9qdZ1ImB4HtOPrC-30" value="Mid-size" style="swimlane;fontStyle=0;childLayout=stackLayout;horizontal=1;startSize=26;horizontalStack=0;resizeParent=1;resizeParentMax=0;resizeLast=0;collapsible=1;marginBottom=0;align=center;fontSize=14;" vertex="1" parent="1">
          <mxGeometry x="245" y="520" width="160" height="56" as="geometry" />
        </mxCell>
        <mxCell id="zmeIX9qdZ1ImB4HtOPrC-34" value="Full-size" style="swimlane;fontStyle=0;childLayout=stackLayout;horizontal=1;startSize=26;horizontalStack=0;resizeParent=1;resizeParentMax=0;resizeLast=0;collapsible=1;marginBottom=0;align=center;fontSize=14;" vertex="1" parent="1">
          <mxGeometry x="430" y="510" width="160" height="56" as="geometry" />
        </mxCell>
        <mxCell id="zmeIX9qdZ1ImB4HtOPrC-38" value="Sport utility" style="swimlane;fontStyle=0;childLayout=stackLayout;horizontal=1;startSize=26;horizontalStack=0;resizeParent=1;resizeParentMax=0;resizeLast=0;collapsible=1;marginBottom=0;align=center;fontSize=14;" vertex="1" parent="1">
          <mxGeometry x="640" y="520" width="160" height="56" as="geometry" />
        </mxCell>
        <mxCell id="zmeIX9qdZ1ImB4HtOPrC-45" value="" style="endArrow=none;html=1;rounded=0;edgeStyle=orthogonalEdgeStyle;exitX=0.532;exitY=-0.013;exitDx=0;exitDy=0;exitPerimeter=0;" edge="1" parent="1" source="zmeIX9qdZ1ImB4HtOPrC-26">
          <mxGeometry width="50" height="50" relative="1" as="geometry">
            <mxPoint x="160" y="489.97" as="sourcePoint" />
            <mxPoint x="210" y="439.97" as="targetPoint" />
          </mxGeometry>
        </mxCell>
        <mxCell id="zmeIX9qdZ1ImB4HtOPrC-46" value="" style="endArrow=none;html=1;rounded=0;edgeStyle=orthogonalEdgeStyle;entryX=0.5;entryY=0;entryDx=0;entryDy=0;exitX=0.344;exitY=0;exitDx=0;exitDy=0;exitPerimeter=0;" edge="1" parent="1" source="zmeIX9qdZ1ImB4HtOPrC-30" target="zmeIX9qdZ1ImB4HtOPrC-23">
          <mxGeometry width="50" height="50" relative="1" as="geometry">
            <mxPoint x="260" y="500" as="sourcePoint" />
            <mxPoint x="320" y="450" as="targetPoint" />
            <Array as="points">
              <mxPoint x="300" y="450" />
            </Array>
          </mxGeometry>
        </mxCell>
        <mxCell id="zmeIX9qdZ1ImB4HtOPrC-47" value="" style="endArrow=none;html=1;rounded=0;edgeStyle=orthogonalEdgeStyle;exitX=0.375;exitY=0;exitDx=0;exitDy=0;exitPerimeter=0;" edge="1" parent="1" source="zmeIX9qdZ1ImB4HtOPrC-34">
          <mxGeometry width="50" height="50" relative="1" as="geometry">
            <mxPoint x="220" y="480" as="sourcePoint" />
            <mxPoint x="270" y="430" as="targetPoint" />
          </mxGeometry>
        </mxCell>
        <mxCell id="zmeIX9qdZ1ImB4HtOPrC-49" value="" style="endArrow=none;html=1;rounded=0;edgeStyle=orthogonalEdgeStyle;exitX=0.5;exitY=0;exitDx=0;exitDy=0;" edge="1" parent="1" source="zmeIX9qdZ1ImB4HtOPrC-38">
          <mxGeometry width="50" height="50" relative="1" as="geometry">
            <mxPoint x="230" y="474.99" as="sourcePoint" />
            <mxPoint x="280" y="424.99" as="targetPoint" />
          </mxGeometry>
        </mxCell>
      </root>
    </mxGraphModel>
  </diagram>
</mxfile>
